<?xml version="1.0" standalone="no"?>
<!DOCTYPE svg PUBLIC "-//W3C//DTD SVG 20010904//EN"
 "http://www.w3.org/TR/2001/REC-SVG-20010904/DTD/svg10.dtd">
<svg version="1.0" xmlns="http://www.w3.org/2000/svg"
 width="597.000000pt" height="220.000000pt" viewBox="0 0 597.000000 220.000000"
 preserveAspectRatio="xMidYMid meet">

<g transform="translate(0.000000,220.000000) scale(0.100000,-0.100000)"
fill="#000000" stroke="none">
<path d="M1355 2189 c-537 -51 -1017 -335 -1240 -734 -85 -151 -129 -378 -108
-557 16 -133 56 -246 124 -348 153 -228 391 -391 702 -481 197 -57 367 -75
572 -59 345 26 695 140 978 318 61 38 99 57 101 49 2 -7 10 -34 17 -62 42
-168 136 -265 259 -265 100 0 183 62 238 178 15 31 28 59 30 61 1 3 16 -12 33
-32 64 -78 163 -99 234 -52 41 29 79 70 112 124 l22 36 3 -170 3 -170 28 -13
c56 -27 168 22 202 88 13 25 15 105 15 538 l0 509 98 6 c53 2 98 3 100 2 2 -2
0 -40 -4 -84 l-7 -81 -37 -10 c-46 -13 -64 -32 -56 -64 5 -21 21 -32 77 -49
15 -5 16 -21 13 -129 -16 -439 -21 -685 -14 -704 17 -44 106 -39 180 10 71 47
72 53 68 452 -3 307 -1 356 12 364 8 5 51 10 94 10 l79 0 -7 -202 c-7 -226 0
-294 40 -375 34 -71 85 -105 162 -111 53 -4 61 -1 103 31 25 19 61 58 80 86
18 28 37 51 40 51 4 0 10 -15 13 -32 10 -52 64 -160 99 -196 75 -79 181 -96
272 -43 63 36 78 53 124 141 l38 71 26 -34 c34 -45 101 -77 159 -77 116 0 232
169 319 465 17 57 29 114 27 127 -2 12 -15 29 -30 37 -43 25 -75 -6 -102 -99
-32 -108 -101 -279 -131 -323 -31 -45 -61 -49 -72 -9 -14 49 -8 254 12 390 22
151 18 174 -34 209 -38 26 -118 32 -150 11 -16 -9 -24 -5 -57 32 -49 54 -87
70 -166 70 -106 0 -193 -55 -262 -167 -14 -24 -53 -125 -87 -225 -66 -199
-115 -313 -146 -341 -19 -16 -22 -16 -36 -2 -9 8 -19 36 -23 62 -9 60 3 261
21 366 8 45 15 96 15 114 0 40 -40 89 -83 101 -18 5 -103 7 -189 4 l-158 -5 0
124 c1 339 47 534 105 445 21 -32 23 -171 4 -245 -18 -70 1 -117 61 -151 39
-22 57 -25 140 -25 84 0 101 3 146 27 76 40 104 78 104 140 0 45 -4 54 -34 83
-38 35 -99 55 -170 55 -42 0 -46 2 -46 23 0 39 -59 144 -97 176 -90 74 -238
54 -319 -43 l-38 -46 -14 27 c-38 74 -92 107 -177 106 -155 -1 -233 -93 -274
-323 l-17 -95 -72 -5 c-55 -4 -76 -10 -93 -26 -44 -45 9 -94 101 -94 59 0 53
30 40 -240 -8 -170 -9 -178 -49 -291 -60 -165 -110 -263 -138 -267 -34 -5 -43
31 -43 161 0 97 9 184 36 364 6 40 4 45 -34 83 -36 36 -44 40 -91 40 -29 0
-61 -5 -73 -11 -17 -9 -24 -5 -54 29 -46 54 -88 72 -171 72 -85 0 -132 -21
-196 -86 -91 -92 -146 -239 -162 -429 l-7 -80 -120 -54 c-329 -147 -617 -212
-938 -213 -224 -1 -415 34 -613 112 -275 107 -465 292 -522 506 -19 71 -21
221 -5 301 16 76 68 189 124 267 150 210 477 396 817 465 411 83 833 4 918
-171 74 -154 -38 -305 -285 -386 -246 -80 -594 -35 -594 77 0 37 80 106 176
152 182 86 188 159 14 159 -181 0 -355 -92 -413 -220 -25 -56 -26 -147 -2
-219 23 -69 108 -156 190 -195 196 -93 478 -100 725 -19 311 104 501 306 500
535 -1 146 -40 240 -144 343 -112 111 -243 177 -436 220 -182 41 -325 51 -505
34z m2433 -643 c2 -21 -4 -72 -13 -112 -9 -41 -14 -78 -11 -83 12 -19 64 -22
100 -7 35 15 36 14 36 -7 0 -12 -3 -31 -6 -43 -5 -19 -9 -20 -52 -12 -26 5
-71 6 -101 3 l-54 -7 7 94 c4 51 11 110 15 131 20 88 73 117 79 43z m-826
-694 c32 -83 30 -268 -5 -403 -54 -208 -140 -306 -207 -239 -44 44 -67 197
-50 340 22 195 76 325 148 362 54 26 86 9 114 -60z m2198 36 c47 -77 52 -285
11 -443 -26 -99 -84 -220 -116 -241 -33 -21 -74 -14 -98 17 -60 82 -61 356 -1
536 49 146 153 214 204 131z"/>
<path d="M5742 1270 c-100 -61 -96 -207 8 -261 92 -50 206 14 217 122 12 118
-123 201 -225 139z m138 -10 c35 -18 62 -60 67 -103 10 -82 -49 -147 -134
-147 -54 0 -108 44 -123 101 -29 107 90 200 190 149z"/>
<path d="M5733 1183 c13 -3 17 -15 17 -49 0 -24 5 -44 10 -44 6 0 10 20 10 44
0 34 4 46 18 49 9 3 -3 5 -28 5 -25 0 -37 -2 -27 -5z"/>
<path d="M5821 1138 c2 -49 2 -50 9 -18 l7 35 8 -32 c4 -18 13 -33 20 -33 7 0
16 15 21 33 l8 32 3 -32 c6 -51 23 -39 23 17 0 43 -3 50 -19 50 -14 0 -22 -10
-27 -32 l-7 -33 -10 33 c-16 53 -37 41 -36 -20z"/>
</g>
</svg>
